# xmcd
#
# Track frame offsets: 
#        150
#        17563
#        32856
#        50000
#        70551
#        88641
#        105352
#        120622
#        134118
#        148566
#        161494
#        175213
#        193649
#        209240
#
# Disc length: 3185 seconds
#
# Revision: 2
# Processed by: cddbd v1.5.2PL0 Copyright (c) Steve Scherf et al.
# Submitted via: ExactAudioCopy v0.99pb5
#
DISCID=c90c6f0e
DTITLE=Nicola - Best of...
DYEAR=2003
DGENRE=Dance
TTITLE0=Langa mine
TTITLE1=Dincolo de noapte e zi
TTITLE2=Iti multumesc
TTITLE3=Turquoise
TTITLE4=Langa mine (Phantom winter tale remix)
TTITLE5=Iarna (Milioane)
TTITLE6=Dincolo de noapte e zi (remix)
TTITLE7=Don't break my heart
TTITLE8=Cu talpile goale
TTITLE9=I do
TTITLE10=Halimah
TTITLE11=Undeva, candva
TTITLE12=Vamos a mamaia
TTITLE13=Langa mine (Phantom remix)
EXTD=
EXTT0=
EXTT1=
EXTT2=
EXTT3=
EXTT4=
EXTT5=
EXTT6=
EXTT7=
EXTT8=
EXTT9=
EXTT10=
EXTT11=
EXTT12=
EXTT13=
PLAYORDER=
